<svg id="Group_20140" data-name="Group 20140" xmlns="http://www.w3.org/2000/svg" xmlns:xlink="http://www.w3.org/1999/xlink" width="37.383" height="39.211" viewBox="0 0 37.383 39.211">
  <defs>
    <clipPath id="clip-path">
      <rect id="Rectangle_80" data-name="Rectangle 80" width="37.383" height="39.211" fill="#37668d"/>
    </clipPath>
  </defs>
  <g id="Group_20139" data-name="Group 20139" clip-path="url(#clip-path)">
    <path id="Path_15360" data-name="Path 15360" d="M25.273,0l0,19.648c.506.965.1,1.525,0,2.368-.137,1.141.105,2.546,0,3.716a1.971,1.971,0,0,1,3.263,1.429c0,.225-.182.723-.089.869l3.946,2.334-.638.949-4.028-2.285-1.458,2.558,7.965,4.675A1.518,1.518,0,0,0,35.6,33.588c-.371-.294-2.813-1.527-2.825-1.691l.639-.949c1.193.889,3.385,1.5,3.84,3.054a2.67,2.67,0,0,1-3.843,3.154l-7.663-4.522c-.189-.047-.5.39-.757.516a1.956,1.956,0,0,1-2.786-2.211h-3.14a1.974,1.974,0,0,1-.153,1.761h2.91v2.68h1.915V39.21H6.127V35.381H8.041V32.7H14.4l-2.949-1.761H0v-8.96H1.149V29.79h8.884a2.231,2.231,0,0,1,2.628-3.228l4.156-6.955a4.356,4.356,0,0,1-.6-.946,2.2,2.2,0,0,1,2.944-2.791l4.958,2.892V1.148H6.893V6.892H1.149V20.753H0V6.087L6.05,0ZM5.744,5.743V1.99L1.991,5.743Zm12.31,11.123a1.069,1.069,0,0,0-.433,1.852l5.352,3.149a1.066,1.066,0,0,0,.917-1.912c-1.378-1.072-3.521-1.86-4.972-2.917a1.09,1.09,0,0,0-.864-.172M17.8,20.158l-4.1,7.019,3.8,2.219,4.1-7.019Zm6.328,2.816a4.616,4.616,0,0,1-1.595.013l-1,1.78,2.6,1.5Zm-3.251,2.769-.814,1.415,3.215,1.851.814-1.415Zm5.449.694a1.025,1.025,0,0,0-.5.417c-.907,1.241-1.59,2.969-2.48,4.259a.808.808,0,0,0,1.4.784c.929-1.058,1.645-3.167,2.56-4.332.221-.708-.218-1.3-.976-1.128m-14.7,1.225a1.076,1.076,0,0,0-.2,1.931l5.277,3.07a1.061,1.061,0,0,0,1.026-1.791L12.437,27.73a1.394,1.394,0,0,0-.819-.068m6.915,2.128h3.753L19.5,28.176Zm2.144,4.059H9.19v1.532h6.663V36.53H7.275v1.532H22.592V36.53H17.117c-.238-.288-.064-.786-.115-1.149h3.561l.115-.115Z" transform="translate(0 0.001)" fill="#37668d"/>
    <path id="Path_15361" data-name="Path 15361" d="M87.67,33.521a4.589,4.589,0,1,1-4.589-4.589,4.589,4.589,0,0,1,4.589,4.589m-1.152,0A3.438,3.438,0,1,0,83.08,36.96a3.438,3.438,0,0,0,3.438-3.438" transform="translate(-70.461 -25.972)" fill="#37668d"/>
    <rect id="Rectangle_76" data-name="Rectangle 76" width="10.343" height="1.225" transform="translate(3.978 19.606)" fill="#37668d"/>
    <rect id="Rectangle_77" data-name="Rectangle 77" width="10.343" height="1.149" transform="translate(3.978 13.938)" fill="#37668d"/>
    <rect id="Rectangle_78" data-name="Rectangle 78" width="10.343" height="1.149" transform="translate(3.978 16.849)" fill="#37668d"/>
    <rect id="Rectangle_79" data-name="Rectangle 79" width="5.748" height="1.149" transform="translate(3.978 22.516)" fill="#37668d"/>
    <path id="Path_15362" data-name="Path 15362" d="M103.484,59.639c-.128.03-.154-.042-.227-.116-.526-.537-.954-1.441-1.457-2.026l.952-.613.695.916,1.88-2.113.835.7Z" transform="translate(-91.386 -49.99)" fill="#37668d"/>
  </g>
</svg>
