<svg id="Group_20144" data-name="Group 20144" xmlns="http://www.w3.org/2000/svg" xmlns:xlink="http://www.w3.org/1999/xlink" width="37.383" height="37.33" viewBox="0 0 37.383 37.33">
  <defs>
    <clipPath id="clip-path">
      <rect id="Rectangle_82" data-name="Rectangle 82" width="37.383" height="37.33" fill="#37668d"/>
    </clipPath>
  </defs>
  <g id="Group_20143" data-name="Group 20143" clip-path="url(#clip-path)">
    <path id="Path_15370" data-name="Path 15370" d="M23.452.062a12.329,12.329,0,0,1,2.3.507.711.711,0,0,1,.487,1L24.329,5.02a2.213,2.213,0,0,1,1.1,3.573,12.1,12.1,0,0,1,5.7,9.991c.8-.349,1.469-1.073,2.264-1.422a2.828,2.828,0,0,1,3.288,4.45c-3.011,2.655-5.816,5.689-8.839,8.312a4.341,4.341,0,0,1-2.229,1.129H14.687c.382.444.518.769.146,1.276-1.616,1.331-3.127,3.5-4.746,4.742a.793.793,0,0,1-1.172,0L.259,28.43a.79.79,0,0,1,0-1.17L5.05,22.49c.571-.381.938-.128,1.346.322,1.716-1.513,3.4-3.31,5.731-3.794a12.113,12.113,0,0,1,5.7-10.426,2.21,2.21,0,0,1,1.1-3.573,41.326,41.326,0,0,1-1.976-3.683A.707.707,0,0,1,17.5.569,12.33,12.33,0,0,1,19.8.062a26.981,26.981,0,0,1,3.652,0M24.474,1.74a14.15,14.15,0,0,0-5.7,0l1.607,2.879c.583.007,1.19-.058,1.792-.039.219.007.5.154.691.039ZM20.954,6.063c-.769.069-2.334.211-2.173,1.25.134.859,1.206.346,1.722.27a7.5,7.5,0,0,1,2.307.011c.481.077,1.025.431,1.442.086a.752.752,0,0,0,.007-1.094c-.518-.478-2.6-.585-3.3-.522m1.4,14.781h1.863a3.8,3.8,0,0,1,1.459.658c.161.116.274.387.5.354l3.364-2.173c.344-.352-.018-2.718-.146-3.274a10.81,10.81,0,0,0-4.485-6.46C19.1,6.375,13.515,13.259,13.592,18.73a8.787,8.787,0,0,1,5.454,1.154c.6.349,1.135,1,1.85.961l-.012-.864c-.712-.122-2.269-1.581-1.065-2.071.718-.292.871.393,1.377.63a.738.738,0,1,0,.6-1.325,5.474,5.474,0,0,1-1.042-.2,2.188,2.188,0,0,1,.134-4.058c-.024-.655-.075-1.766.907-1.577.738.142.536,1.029.578,1.577.591.224,1.661.827,1.157,1.58-.615.919-1.294-.29-1.935-.26a.741.741,0,0,0-.429,1.307c.259.2.893.17,1.288.318a2.187,2.187,0,0,1-.081,4.079Zm13.194-2.089a1.356,1.356,0,0,0-1.557-.258l-7.105,4.647c-.268.19-.112.581-.151.87-.528,3.944-5.424,2.336-8.138,2.658a.733.733,0,0,1,0-1.449c1.529-.233,3.645.137,5.257,0a1.462,1.462,0,0,0,.07-2.919c-1.4-.142-3.294.345-4.515-.378A9.954,9.954,0,0,0,16.5,20.388c-3.8-1.023-6.336.832-8.93,3.3l-.1.173L13.2,29.58l12.31,0a3.316,3.316,0,0,0,1.591-.964c2.878-2.554,5.544-5.369,8.436-7.912a1.385,1.385,0,0,0,.01-1.944M5.557,24.083,1.788,27.845l7.713,7.7,3.768-3.762Z" transform="translate(0 0)" fill="#37668d"/>
    <path id="Path_15371" data-name="Path 15371" d="M138.668,230.636a.733.733,0,1,1-.733-.732.732.732,0,0,1,.733.732" transform="translate(-122.153 -204.687)" fill="#37668d"/>
  </g>
</svg>
