<svg id="Group_20129" data-name="Group 20129" xmlns="http://www.w3.org/2000/svg" xmlns:xlink="http://www.w3.org/1999/xlink" width="41.334" height="42.853" viewBox="0 0 41.334 42.853">
  <defs>
    <clipPath id="clip-path">
      <rect id="Rectangle_72" data-name="Rectangle 72" width="41.334" height="42.853" fill="#fff"/>
    </clipPath>
  </defs>
  <g id="Group_20128" data-name="Group 20128" clip-path="url(#clip-path)">
    <path id="Path_15350" data-name="Path 15350" d="M7.73,20.09a4.648,4.648,0,0,1,4.753,2.376c1.942,2.849,4.742,6.756,1.249,9.656-.907.753-3.125,1.5-3.209,2.727-.087,1.273,1.8,5,2.513,6.206.918,1.562,3.011,4.572,4.432,5.618,1.314.966,2.759-.667,3.937-1.23a4.59,4.59,0,0,1,5.951,1.488c.838,1.143,3.031,4.644,3.164,5.928a4.771,4.771,0,0,1-1,3.474,22.883,22.883,0,0,1-6.433,3.9C21.2,60.619,19.9,59.8,18.348,58.9A37.2,37.2,0,0,1,.1,29.588c-.168-2.306-.353-4.625,1.634-6.212.96-.767,4.911-3.146,6-3.286" transform="translate(0 -17.479)" fill="#fff"/>
    <path id="Path_15351" data-name="Path 15351" d="M168.407.024c.831-.171,3.482.622,4.383.933A21.664,21.664,0,0,1,187.1,19.288a19.342,19.342,0,0,1-.215,5.334,1.549,1.549,0,0,1-3.041-.449c.017-1.016.307-2.173.294-3.263A18.572,18.572,0,0,0,170.56,3.474c-.734-.2-2.357-.356-2.846-.791a1.574,1.574,0,0,1,.693-2.659" transform="translate(-145.846 0)" fill="#fff"/>
    <path id="Path_15352" data-name="Path 15352" d="M161.349,47.241a13.689,13.689,0,0,1,4.267,1.144,15.415,15.415,0,0,1,9.057,15.634c-.151,1.181-.681,2.407-2.127,1.938-1.515-.492-.878-2.089-.84-3.181a12.371,12.371,0,0,0-8.827-12.132c-.767-.224-2.066-.276-2.548-.9a1.568,1.568,0,0,1,1.017-2.5" transform="translate(-139.549 -41.191)" fill="#fff"/>
    <path id="Path_15353" data-name="Path 15353" d="M153.765,94.876c1.525-.341,4.145,1.049,5.293,2.036a9.328,9.328,0,0,1,3.146,8.222,1.525,1.525,0,0,1-2.414,1.191c-.994-.646-.52-1.618-.535-2.522a6.327,6.327,0,0,0-4.239-5.721c-.641-.2-1.478-.177-1.937-.742a1.576,1.576,0,0,1,.686-2.465" transform="translate(-133.215 -82.699)" fill="#fff"/>
  </g>
</svg>
