<svg id="Group_20142" data-name="Group 20142" xmlns="http://www.w3.org/2000/svg" xmlns:xlink="http://www.w3.org/1999/xlink" width="42.091" height="42.29" viewBox="0 0 42.091 42.29">
  <defs>
    <clipPath id="clip-path">
      <rect id="Rectangle_81" data-name="Rectangle 81" width="42.091" height="42.29" fill="#37668d"/>
    </clipPath>
  </defs>
  <g id="Group_20141" data-name="Group 20141" clip-path="url(#clip-path)">
    <path id="Path_15363" data-name="Path 15363" d="M117.962,15.587,120.3,20.61c.546,2.067-1.875.957-2.936.973-.586.8-1.183,3.065-2.455,1.779L112.663,18.5a3,3,0,0,0-2.683,0l-2.36,5c-1.337.944-1.72-1.218-2.4-1.951-1.03.067-3.27,1.057-2.926-.822l2.385-5.1a2.683,2.683,0,0,1-1.959-2.9,9.266,9.266,0,0,0,.168-1.694c-.165-1.037-1.183-1.583-1.006-3.06.155-1.293,1.113-1.569,1.78-2.391.876-1.08.278-2.65,1.812-3.551.925-.544,1.53-.306,2.476-.419,1.22-.146,1.834-1.639,3.416-1.614,1.533.025,2.148,1.473,3.328,1.614.945.113,1.55-.125,2.476.419,1.529.9.937,2.508,1.812,3.551.859,1.023,1.972,1.318,1.78,3.054-.1.892-.9,1.715-1.007,2.4a10.578,10.578,0,0,0,.168,1.694,2.6,2.6,0,0,1-1.962,2.857m-6.831-14.2c-.685.1-1.552,1.2-2.316,1.433-1.024.312-2.688-.208-3.117.97a12.141,12.141,0,0,1-.66,2.235c-.38.657-1.653,1.407-1.784,2.046-.174.845.843,1.851.981,2.725s-.4,2.168,0,2.891c.359.637,1.806.861,2.441,1.39s1.121,1.9,1.747,2.168c.778.334,2.07-.518,3.024-.472.864.042,2.057.828,2.826.448.571-.283,1.069-1.629,1.687-2.144s2.031-.75,2.41-1.336c.46-.713-.108-2.041.035-2.945.133-.843,1.114-1.858,1-2.654-.1-.691-1.41-1.456-1.8-2.118-.451-.768-.449-2.265-1.011-2.735-.6-.5-1.881-.212-2.7-.446-.933-.265-1.8-1.595-2.76-1.456m-2.7,17.264c-1.366-.209-1.756-1.436-2.511-2.383L104,20.353a17.739,17.739,0,0,1,1.791-.219c.517.161,1.015,1.579,1.146,1.58Zm10.216,1.7-1.915-4.084c-.756.959-1.14,2.151-2.511,2.383l1.49,3.062c.131,0,.629-1.419,1.146-1.58a17.742,17.742,0,0,1,1.791.219" transform="translate(-90.276 0)" fill="#37668d"/>
    <path id="Path_15364" data-name="Path 15364" d="M157.923,197.617l-.036,14.564a.759.759,0,0,1-.607.585,21.95,21.95,0,0,1-3.212-.013.852.852,0,0,1-.575-.873l0-14.263c-.905.1-1.747-.117-1.512-1.214l3.085-3.725a.928.928,0,0,1,1.321.044l3.043,3.681c.235,1.1-.606,1.311-1.512,1.214m-3.064-.979v14.77h1.7v-14.77c0-.252.8-.452,1.021-.425l-1.9-2.08-1.842,2.08c.272.018.929.095,1.021.425" transform="translate(-134.664 -170.539)" fill="#37668d"/>
    <path id="Path_15365" data-name="Path 15365" d="M233.666,238.729v10c0,.281-.476.45-.72.472a20.167,20.167,0,0,1-3.064-.009c-.191-.03-.558-.285-.558-.463v-10c-1.053.18-2.121-.49-1.362-1.575.794-1.134,2.053-2.194,2.859-3.356a.974.974,0,0,1,1.348,0c.807,1.138,1.968,2.155,2.772,3.272.843,1.17-.076,1.793-1.275,1.658m-2.98-.894v10H232.3v-10c0-.369.739-.523,1.021-.51l-1.83-2.169-1.83,2.084.713.221a.97.97,0,0,1,.307.374" transform="translate(-201.809 -206.968)" fill="#37668d"/>
    <path id="Path_15366" data-name="Path 15366" d="M81.842,238.729v10c0,.281-.476.45-.72.472a20.167,20.167,0,0,1-3.064-.009c-.191-.03-.558-.285-.558-.463v-10c-1.2.134-2.118-.488-1.275-1.658.8-1.117,1.965-2.135,2.772-3.272a.974.974,0,0,1,1.348,0c.806,1.162,2.065,2.221,2.859,3.356.759,1.085-.309,1.755-1.362,1.575m-2.98-.894v10h1.617v-10a1.019,1.019,0,0,1,.307-.374l.713-.221-1.83-2.084-1.83,2.084.713.221a.97.97,0,0,1,.307.374" transform="translate(-67.266 -206.968)" fill="#37668d"/>
    <path id="Path_15367" data-name="Path 15367" d="M5.977,279.365V284.6a.963.963,0,0,1-.506.6,22.522,22.522,0,0,1-3.277.033c-.261-.041-.643-.383-.643-.634v-5.236c-1.271.2-2.044-.5-1.19-1.658a34.746,34.746,0,0,1,2.423-2.855c.881-.914,1.145-.86,2,.042.931.977,1.758,2.193,2.675,3.2.287,1.146-.514,1.4-1.486,1.273m-3.065-.894v5.406h1.7v-5.406c0-.353.58-.418.808-.47.1-.024.154.063.127-.125l-1.82-2-1.754,2.082c.317.059.85.106.936.51" transform="translate(0 -243.007)" fill="#37668d"/>
    <path id="Path_15368" data-name="Path 15368" d="M309.925,279.365v5.15a.9.9,0,0,1-.506.686,22.455,22.455,0,0,1-3.277.033c-.261-.041-.643-.383-.643-.634v-5.236c-.971.123-1.773-.128-1.486-1.273.917-1.005,1.745-2.222,2.675-3.2.859-.9,1.123-.956,2-.042a34.724,34.724,0,0,1,2.423,2.855c.854,1.154.081,1.859-1.19,1.658m-3.065-.894v5.406h1.7v-5.406c0-.336.683-.492.936-.51l-1.754-2.082-1.82,2c-.026.188.025.1.128.125.294.068.724.074.808.47" transform="translate(-269.384 -243.007)" fill="#37668d"/>
    <path id="Path_15369" data-name="Path 15369" d="M147.723,39.43a5.494,5.494,0,1,1-5.494-5.494,5.494,5.494,0,0,1,5.494,5.494m-1.364,0a4.13,4.13,0,1,0-4.13,4.13,4.13,4.13,0,0,0,4.13-4.13" transform="translate(-121.184 -30.076)" fill="#37668d"/>
  </g>
</svg>
